<?xml version="1.0" standalone="no"?>
<!DOCTYPE svg PUBLIC "-//W3C//DTD SVG 1.1//EN" "http://www.w3.org/Graphics/SVG/1.1/DTD/svg11.dtd" >
<svg xmlns="http://www.w3.org/2000/svg">
<metadata></metadata>
<defs>
<font id="mgen_1mnregular" horiz-adv-x="1024" vert-adv-y="2048" >
<font-face units-per-em="2048" ascent="1762" descent="-286" />
<missing-glyph horiz-adv-x="500" />
<glyph horiz-adv-x="0" vert-adv-y="0" />
<glyph unicode="&#xd;" />
<glyph unicode=" " />
<glyph unicode="!" d="M400 0v266h224v-266h-224zM410 1496h204l-20 -1056h-164z" />
<glyph unicode="&#x22;" d="M236 1598h204l-40 -574h-124zM584 1598h204l-40 -574h-124z" />
<glyph unicode="#" d="M82 386v134h144l46 492h-118v134h130l36 350h164l-36 -350h206l34 350h164l-34 -350h124v-134h-138l-46 -492h112v-134h-126l-38 -386h-164l38 386h-206l-36 -386h-164l36 386h-128zM390 520h204l48 492h-206z" />
<glyph unicode="$" d="M154 1096q0 176 97 272t279 96v206h148v-216q100 -16 182 -52v-150q-76 40 -182 64v-534q114 -60 163 -147t49 -215q0 -382 -376 -390v-204h-148v218q-94 16 -202 68v164q102 -68 202 -96v566q-114 60 -163 141t-49 209zM322 1096q0 -184 190 -246l18 -6v490 q-208 -6 -208 -238zM514 162q208 12 208 258q0 194 -208 266v-524z" />
<glyph unicode="%" d="M62 1188q0 160 70 244t195 84t196 -84t71 -244t-71 -244t-196 -84t-195 84t-70 244zM122 368v164l780 594v-164zM222 1188q0 -204 106 -204t106 204t-106 204t-106 -204zM430 307q0 159 71 243t196 84t195 -84t70 -243t-70 -243t-195 -84t-196 84t-71 243zM590 307 q0 -205 106 -205t106 205t-106 205t-106 -205z" />
<glyph unicode="&#x26;" d="M62 400q0 304 278 414v4q-104 56 -161 149t-57 211q0 154 101 246t279 92q120 0 240 -24v-140q-110 28 -210 28q-242 0 -242 -234q0 -126 78 -200t206 -74h78v274h168v-274h164v-134h-164v-718q-158 -40 -318 -40q-216 0 -328 106t-112 314zM234 410q0 -146 67 -221 t191 -75q80 0 160 22v602h-82q-152 0 -244 -90t-92 -238z" />
<glyph unicode="'" d="M400 1598h224l-50 -574h-124z" />
<glyph unicode="(" d="M256 645q0 563 398 931h154q-186 -174 -287 -418t-101 -513t101 -513t287 -418h-154q-398 368 -398 931z" />
<glyph unicode=")" d="M216 -286q186 174 287 418t101 513t-101 513t-287 418h154q398 -368 398 -931t-398 -931h-154z" />
<glyph unicode="*" d="M84 1156l58 178l320 -154l-44 354h188l-44 -354l320 154l58 -178l-350 -68l244 -258l-152 -112l-170 314l-170 -314l-152 112l244 258z" />
<glyph unicode="+" d="M82 564v134h344v438h172v-438h344v-134h-344v-452h-172v452h-344z" />
<glyph unicode="," d="M308 -266q86 302 122 574h246q-76 -288 -226 -574h-142z" />
<glyph unicode="-" d="M216 536v138h592v-138h-592z" />
<glyph unicode="." d="M378 0v308h268v-308h-268z" />
<glyph unicode="/" d="M98 -82l680 1578h148l-680 -1578h-148z" />
<glyph unicode="0" d="M122 747q0 221 25 372t76 237t121 123t168 37t168 -37t121 -123t76 -237t25 -372t-25 -371t-76 -236t-121 -123t-168 -37t-168 37t-121 123t-76 236t-25 371zM282 748q0 -150 8 -240l404 698q-54 174 -182 174q-114 0 -172 -140t-58 -492zM322 316q54 -200 190 -202 q114 0 172 141t58 493q0 162 -12 274z" />
<glyph unicode="1" d="M170 1120v160l358 216h168v-1496h-172v1326l-4 2z" />
<glyph unicode="2" d="M164 0v136q510 564 510 990q0 254 -192 254q-142 0 -318 -118v152q164 102 348 102q338 0 338 -390q0 -202 -117 -432t-391 -554v-4h518v-136h-696z" />
<glyph unicode="3" d="M134 40v150q86 -46 145 -61t141 -15q278 0 278 326q0 156 -82 227t-268 71h-40v134h40q174 0 254 69t80 217q0 108 -55 165t-159 57q-142 0 -306 -86v150q98 44 162 58t156 14q172 0 271 -91t99 -247q0 -288 -246 -360v-6q266 -56 266 -382q0 -450 -440 -450 q-88 0 -146 11t-150 49z" />
<glyph unicode="4" d="M82 358v136l498 1002h188v-1002h174v-136h-174v-358h-172v358h-514zM228 494h368v746h-4l-364 -742v-4z" />
<glyph unicode="5" d="M184 40v150q146 -76 266 -76q136 0 197 79t61 279q0 336 -196 334q-54 0 -88 -19t-76 -71h-154l22 780h624v-136h-466l-16 -480h4q76 62 190 62q328 0 328 -470q0 -268 -99 -380t-321 -112q-146 0 -276 60z" />
<glyph unicode="6" d="M144 656q0 324 52 516t145 268t243 76q124 0 236 -42v-144q-102 52 -216 50q-148 0 -214 -103t-82 -387h4q108 102 240 104q178 0 264 -115t86 -377q0 -280 -94 -401t-286 -121q-202 0 -290 144t-88 532zM316 522q0 -228 50 -318t156 -90q112 0 162 82t50 306 q0 200 -48 278t-154 78q-108 0 -162 -79t-54 -257z" />
<glyph unicode="7" d="M154 1360v136h716v-136q-262 -606 -430 -1360h-180q170 720 460 1356v4h-566z" />
<glyph unicode="8" d="M102 390q0 140 68 244t188 152v4q-98 48 -161 151t-63 217q0 168 100 263t278 95t278 -96t100 -262q0 -114 -62 -212t-162 -146v-4q120 -48 188 -154t68 -252q0 -200 -112 -305t-308 -105q-194 0 -297 104t-103 306zM258 390q0 -276 254 -276q112 0 175 69t63 207 q0 276 -248 338q-126 -34 -185 -115t-59 -223zM302 1158q0 -118 58 -202t152 -106q106 28 165 107t59 201q0 106 -57 164t-157 58q-222 0 -220 -222z" />
<glyph unicode="9" d="M122 1014q0 502 380 502q140 0 219 -58t119 -206t40 -412q0 -330 -51 -522t-144 -265t-245 -73q-124 0 -236 40v148q106 -54 216 -54q146 0 213 103t83 387h-4q-108 -102 -240 -102q-172 0 -261 121t-89 391zM290 1014q0 -206 50 -292t152 -86q218 0 216 358 q0 216 -50 301t-156 85q-112 0 -162 -79t-50 -287z" />
<glyph unicode=":" d="M390 0v308h244v-308h-244zM390 798v308h244v-308h-244z" />
<glyph unicode=";" d="M286 -266q86 302 124 574h246q-76 -288 -226 -574h-144zM410 798v308h246v-308h-246z" />
<glyph unicode="&#x3c;" d="M112 542v164l778 502v-164l-674 -418v-4l674 -418v-164z" />
<glyph unicode="=" d="M122 338v136h780v-136h-780zM122 776v136h780v-136h-780z" />
<glyph unicode="&#x3e;" d="M134 40v164l674 418v4l-674 418v164l778 -502v-164z" />
<glyph unicode="?" d="M134 1256v168q190 92 388 92q186 0 288 -86t102 -242q0 -80 -27 -149t-56 -105t-83 -94q-60 -62 -91 -103t-61 -121t-30 -176h-164q0 112 33 208t66 140t97 116q52 58 74 87t46 83t24 114q0 192 -238 192q-174 0 -368 -124zM368 0v266h226v-266h-226z" />
<glyph unicode="@" d="M72 532q0 404 124 586t368 182q178 0 273 -102t95 -308v-664q-134 -134 -286 -134t-224 98t-72 342q0 236 69 338t205 102q80 2 146 -50h4v10q0 114 -53 174t-147 60q-170 0 -254 -144t-84 -490q0 -244 41 -385t111 -194t186 -53q126 0 256 78v-152q-120 -62 -266 -62 q-250 0 -371 176t-121 592zM506 532q0 -182 34 -247t106 -65q84 0 118 72v466q-36 88 -118 88q-78 0 -109 -63t-31 -251z" />
<glyph unicode="A" d="M40 0l370 1496h204l370 -1496h-182l-98 438h-392l-100 -438h-172zM340 570h336l-166 740h-4z" />
<glyph unicode="B" d="M154 20v1454q154 40 318 42q418 0 418 -367q0 -128 -62 -213q-62 -86 -172 -114v-4q118 -22 197 -131t79 -257q0 -450 -460 -450q-164 0 -318 40zM326 138q68 -22 146 -24q292 0 292 316q0 318 -330 318h-108v-610zM326 878h88q164 0 239 64t75 204q0 110 -67 172 t-189 62q-88 0 -146 -22v-480z" />
<glyph unicode="C" d="M112 768q0 376 132 562t370 186q130 0 246 -42v-410h-168v304q-36 8 -58 8q-162 0 -254 -148t-92 -460q0 -654 346 -654q110 0 216 64v-148q-102 -50 -226 -50h-10q-246 0 -374 187t-128 601z" />
<glyph unicode="D" d="M134 20v1454q138 40 280 42q280 0 409 -170t129 -578q0 -434 -130 -611t-408 -177q-144 0 -280 40zM306 138q40 -22 108 -24q134 0 210 54t118 198t42 402q0 340 -89 476t-281 136q-68 0 -108 -22v-1220z" />
<glyph unicode="E" d="M174 0v1496h676v-136h-504v-482h484v-130h-484v-612h504v-136h-676z" />
<glyph unicode="F" d="M194 0v1496h656v-136h-484v-482h464v-130h-464v-748h-172z" />
<glyph unicode="G" d="M92 768q0 748 522 748q118 0 246 -42v-146q-127 48 -237 48h-9q-346 0 -346 -608q0 -654 326 -654q78 2 150 38v596h-314v130h482v-826q-152 -72 -328 -72q-492 0 -492 788z" />
<glyph unicode="H" d="M122 0v1496h164v-616h444v616h172v-1496h-172v746h-444v-746h-164z" />
<glyph unicode="I" d="M184 0v136h240v1224h-240v136h656v-136h-240v-1224h240v-136h-656z" />
<glyph unicode="J" d="M122 52v146q60 -32 155 -58t153 -26q110 0 162 56t52 182v1008h-358v136h534v-1148q0 -208 -84 -288t-306 -80q-170 0 -308 72z" />
<glyph unicode="K" d="M154 0v1496h172v-676h4l422 676h190l-456 -718l466 -778h-190l-432 738h-4v-738h-172z" />
<glyph unicode="L" d="M204 0v1496h172v-1360h504v-136h-676z" />
<glyph unicode="M" d="M62 0l82 1496h224l150 -922h4l166 922h192l82 -1496h-172l-30 1352h-4l-162 -942h-176l-150 942h-4l-38 -1352h-164z" />
<glyph unicode="N" d="M144 0v1496h172l396 -1148h4v1148h164v-1496h-164l-396 1146h-4v-1146h-172z" />
<glyph unicode="O" d="M82 748q0 426 102 597t328 171t328 -171t102 -597t-102 -597t-328 -171t-328 171t-102 597zM246 748q0 -356 64 -495t202 -139t202 139t64 495t-64 494t-202 138t-202 -138t-64 -494z" />
<glyph unicode="P" d="M154 0v1474q154 40 318 42q240 0 350 -113t110 -359q0 -260 -112 -376t-348 -116q-64 0 -146 12v-564h-172zM326 706q58 -22 146 -22q154 0 223 82t69 278q0 176 -71 256t-221 80q-88 0 -146 -22v-652z" />
<glyph unicode="Q" d="M82 748q0 426 102 597t328 171t328 -171t102 -597q0 -306 -50 -469t-154 -235v-6q84 -44 149 -135t97 -211h-182q-44 160 -111 224t-179 64q-226 0 -328 171t-102 597zM246 748q0 -356 64 -495t202 -139t202 139t64 495t-64 494t-202 138t-202 -138t-64 -494z" />
<glyph unicode="R" d="M144 0v1474q154 40 316 42q462 0 462 -420q0 -130 -65 -227t-179 -149v-4q96 -74 156 -278l128 -438h-176l-120 442q-36 134 -92 184t-160 50h-98v-676h-172zM316 812h98q188 0 264 63t76 221q0 284 -294 284q-88 0 -144 -22v-546z" />
<glyph unicode="S" d="M144 1146q0 174 103 272t295 98q162 0 318 -62v-164q-144 90 -308 90q-112 0 -176 -62t-64 -172q0 -102 45 -169t145 -113q228 -100 314 -210t86 -286q0 -388 -416 -388h-4q-186 0 -328 92v168q150 -124 338 -126q238 0 238 254q0 112 -52 186t-176 132q-192 86 -275 196 t-83 264z" />
<glyph unicode="T" d="M112 1360v136h800v-136h-314v-1360h-172v1360h-314z" />
<glyph unicode="U" d="M122 368v1128h172v-1086q0 -162 54 -229t168 -67q116 0 169 66t53 230v1086h164v-1128q0 -204 -95 -296t-295 -92t-295 92t-95 296z" />
<glyph unicode="V" d="M62 1496h176l276 -1332h4l276 1332h168l-348 -1496h-204z" />
<glyph unicode="W" d="M30 1496h172l94 -1168h6l134 962h164l130 -1168h4l100 1374h160l-154 -1496h-218l-126 1044h-4l-144 -1044h-164z" />
<glyph unicode="X" d="M102 0l308 768l-304 728h184l224 -594h4l224 594h176l-304 -728l308 -768h-188l-224 624h-4l-224 -624h-180z" />
<glyph unicode="Y" d="M62 1496h184l268 -728h4l270 728h174l-364 -902v-594h-172v594z" />
<glyph unicode="Z" d="M154 0v136l532 1220v4h-532v136h716v-136l-532 -1220v-4h532v-136h-716z" />
<glyph unicode="[" d="M286 -286v1862h512v-114h-340v-1634h340v-114h-512z" />
<glyph unicode="\" d="M98 1496h148l680 -1578h-148z" />
<glyph unicode="]" d="M226 -172h340v1634h-340v114h512v-1862h-512v114z" />
<glyph unicode="^" d="M62 574l348 922h204l348 -922h-160l-288 798h-4l-288 -798h-160z" />
<glyph unicode="_" d="M102 -172h820v-114h-820v114z" />
<glyph unicode="`" d="M266 1658h246q82 -288 204 -572h-142q-184 274 -308 572z" />
<glyph unicode="a" d="M134 318q0 368 500 368h68v52q0 134 -37 175t-153 41q-160 0 -328 -68v138q168 62 328 62q212 0 285 -76t73 -314v-656q-141 -60 -326 -60h-12q-186 0 -292 89t-106 249zM302 318q0 -100 62 -156t168 -56q96 0 170 32v426h-68q-178 0 -255 -61t-77 -185z" />
<glyph unicode="b" d="M154 40v1496h168v-492q96 40 190 42q198 0 299 -133t101 -421q0 -294 -105 -423t-315 -129q-192 0 -338 60zM322 138q74 -30 170 -32q122 0 187 99t65 327q0 422 -232 422q-114 0 -190 -68v-748z" />
<glyph unicode="c" d="M134 532q0 552 460 554q140 0 246 -32v-348h-164v242q-30 6 -72 6q-142 0 -220 -105t-78 -317t79 -319t219 -107q116 0 226 58v-134q-110 -50 -227 -50h-9q-222 0 -341 136t-119 416z" />
<glyph unicode="d" d="M112 532q0 288 101 421t299 133q94 0 190 -42v492h168v-1496q-141 -60 -326 -60h-12q-208 0 -314 130t-106 422zM280 532q0 -228 65 -327t187 -99q96 0 170 32v748q-76 68 -190 68q-232 0 -232 -422z" />
<glyph unicode="e" d="M112 532q0 288 103 421t307 133q186 0 277 -127t91 -417q0 -14 -4 -54h-602q8 -200 79 -291t201 -91q122 0 276 58v-134q-146 -50 -278 -50h-10q-440 0 -440 552zM286 614h436q-6 342 -200 342q-114 0 -171 -76t-65 -266z" />
<glyph unicode="f" d="M154 898v126h246v144q0 194 63 271t223 77q94 0 184 -20v-138q-76 26 -154 26q-72 0 -99 -16t-38 -71t-11 -191v-82h302v-126h-302v-898h-168v898h-246z" />
<glyph unicode="g" d="M122 564q0 272 108 397t334 125q170 0 316 -42v-972q0 -250 -169 -397t-455 -147v132q212 0 334 105t122 287v30q-92 -40 -190 -42q-400 0 -400 524zM290 564q0 -396 232 -396q114 0 190 64v708q-74 14 -148 14q-136 0 -205 -93t-69 -297z" />
<glyph unicode="h" d="M154 0v1536h168v-512q116 62 252 62q162 0 239 -94t77 -296v-696h-158v656q0 178 -42 238t-158 60q-58 0 -118 -24t-92 -64v-866h-168z" />
<glyph unicode="i" d="M218 938v126h450v-1064h-172v938h-278zM454 1310v246h214v-246h-214z" />
<glyph unicode="j" d="M124 -340q184 0 283 100t99 298v880h-278v126h450v-1024q0 -512 -554 -512v132zM464 1310v246h214v-246h-214z" />
<glyph unicode="k" d="M164 0v1536h168v-924l418 452h192l-470 -512l470 -552h-194l-416 488v-488h-168z" />
<glyph unicode="l" d="M134 1368v128h454v-1370h282v-126h-454v1368h-282z" />
<glyph unicode="m" d="M62 0v1014q116 72 276 72q114 0 174 -52q84 52 194 52q152 0 204 -55t52 -211v-820h-160v820q0 80 -21 107t-79 27q-68 0 -108 -34v-920h-160v820q0 80 -21 107t-79 27q-68 0 -108 -34v-920h-164z" />
<glyph unicode="n" d="M144 0v1004q148 82 338 82q232 0 315 -75t83 -273v-738h-164v738q0 120 -52 168t-182 48q-100 0 -170 -54v-900h-168z" />
<glyph unicode="o" d="M102 533q0 293 102 423t308 130t308 -130t102 -423t-102 -423t-308 -130t-308 130t-102 423zM274 532q0 -238 56 -330t182 -92t182 92t56 330t-56 330t-182 92t-182 -92t-56 -330z" />
<glyph unicode="p" d="M154 -450v1474q154 62 338 62q212 0 316 -131t104 -423t-103 -422t-297 -130q-98 0 -190 40v-470h-168zM322 170q76 -64 190 -64q232 0 232 426q0 422 -252 422q-96 0 -170 -24v-760z" />
<glyph unicode="q" d="M112 532q0 290 104 422t316 132q184 0 338 -62v-1474h-168v470q-92 -40 -190 -40q-194 0 -297 130t-103 422zM280 532q0 -426 232 -426q114 0 190 64v760q-74 24 -170 24q-252 0 -252 -422z" />
<glyph unicode="r" d="M226 0v984q290 102 634 102v-134q-248 0 -466 -64v-888h-168z" />
<glyph unicode="s" d="M164 798q0 140 93 214t275 74q158 0 308 -42v-132q-160 46 -298 46q-210 0 -210 -160q0 -66 41 -104t149 -70q210 -58 284 -131t74 -216t-101 -220t-287 -77q-172 0 -318 60v138q162 -72 298 -72q124 0 180 41t56 129q0 80 -43 125t-163 81q-186 54 -262 126t-76 190z " />
<glyph unicode="t" d="M134 898v126h204v390h168v-390h364v-126h-364v-590q0 -118 31 -158t129 -40q96 0 184 28v-138q-94 -20 -204 -20q-172 0 -240 66t-68 240v612h-204z" />
<glyph unicode="u" d="M154 328v736h164v-736q0 -126 45 -172t169 -46q98 0 170 46v908h168v-1002q-148 -82 -338 -82q-220 0 -299 73t-79 275z" />
<glyph unicode="v" d="M102 1064h176l236 -920h4l236 920h168l-308 -1064h-204z" />
<glyph unicode="w" d="M40 1064h168l82 -860h4l150 860h156l134 -942h4l98 942h148l-144 -1064h-210l-130 880h-4l-148 -880h-164z" />
<glyph unicode="x" d="M112 0l298 532l-298 532h180l222 -430h4l222 430h172l-298 -532l298 -532h-184l-218 430h-4l-218 -430h-176z" />
<glyph unicode="y" d="M92 1064h166l266 -838h4l250 838h174l-492 -1514h-170l160 470z" />
<glyph unicode="z" d="M164 0v126l508 808v4h-508v126h696v-126l-508 -806v-6h508v-126h-696z" />
<glyph unicode="{" d="M134 584v122h108q92 0 136 61t44 195v308q0 162 71 234t219 72h158v-110h-102q-126 0 -160 -39t-34 -185v-290q0 -124 -41 -194t-133 -110v-4q92 -40 133 -111t41 -195v-288q0 -148 34 -187t160 -39h102v-110h-158q-150 0 -220 72t-70 234v308q0 136 -44 196t-136 60 h-108z" />
<glyph unicode="|" d="M436 -450v2108h152v-2108h-152z" />
<glyph unicode="}" d="M154 -176h102q126 0 160 39t34 187v288q0 124 41 194t133 112v4q-92 40 -133 110t-41 194v290q0 148 -34 186t-160 38h-102v110h158q150 0 220 -72t70 -234v-308q0 -136 44 -196t136 -60h108v-122h-108q-92 0 -136 -61t-44 -195v-308q0 -162 -71 -234t-219 -72h-158v110z " />
<glyph unicode="~" d="M102 378v172l234 204q88 76 118 72q26 -4 76 -88l72 -124q16 -28 24 -30t40 24l256 222v-172l-234 -204q-88 -76 -118 -72q-26 4 -76 90l-72 122q-16 28 -24 30t-40 -24z" />
<glyph unicode="&#xa0;" />
<glyph unicode="&#xad;" d="M216 536v138h592v-138h-592z" />
<glyph unicode="&#x2000;" horiz-adv-x="835" vert-adv-y="0" />
<glyph unicode="&#x2001;" horiz-adv-x="1670" vert-adv-y="0" />
<glyph unicode="&#x2002;" horiz-adv-x="835" vert-adv-y="0" />
<glyph unicode="&#x2003;" horiz-adv-x="1670" vert-adv-y="0" />
<glyph unicode="&#x2004;" horiz-adv-x="556" vert-adv-y="0" />
<glyph unicode="&#x2005;" horiz-adv-x="417" vert-adv-y="0" />
<glyph unicode="&#x2006;" horiz-adv-x="278" vert-adv-y="0" />
<glyph unicode="&#x2007;" horiz-adv-x="278" vert-adv-y="0" />
<glyph unicode="&#x2008;" horiz-adv-x="208" vert-adv-y="0" />
<glyph unicode="&#x2009;" horiz-adv-x="334" vert-adv-y="0" />
<glyph unicode="&#x200a;" horiz-adv-x="92" vert-adv-y="0" />
<glyph unicode="&#x2010;" d="M216 536v138h592v-138h-592z" />
<glyph unicode="&#x2011;" d="M216 536v138h592v-138h-592z" />
<glyph unicode="&#x2012;" d="M216 536v138h592v-138h-592z" />
<glyph unicode="&#x2013;" horiz-adv-x="1456" d="M216 536v138h1024v-138h-1024z" />
<glyph unicode="&#x2014;" horiz-adv-x="2480" d="M216 536v138h2048v-138h-2048z" />
<glyph unicode="&#x202f;" horiz-adv-x="334" vert-adv-y="0" />
<glyph unicode="&#x205f;" horiz-adv-x="417" vert-adv-y="0" />
<glyph unicode="&#x25fc;" horiz-adv-x="1060" vert-adv-y="2120" d="M0 0v1060h1060v-1060h-1060z" />
</font>
</defs>
</svg>
